<?xml version="1.0" standalone="no"?>
<!DOCTYPE svg PUBLIC "-//W3C//DTD SVG 20010904//EN"
 "http://www.w3.org/TR/2001/REC-SVG-20010904/DTD/svg10.dtd">
<svg version="1.0" xmlns="http://www.w3.org/2000/svg"
 width="600.000000pt" height="600.000000pt" viewBox="0 0 600.000000 600.000000"
 preserveAspectRatio="xMidYMid meet">
<metadata>
Created by potrace 1.11, written by Peter Selinger 2001-2013
</metadata>
<g transform="translate(0.000000,600.000000) scale(0.100000,-0.100000)"
fill="#000000" stroke="none">
<path d="M2745 5914 c-640 -65 -1197 -302 -1665 -710 -521 -452 -864 -1075
-972 -1765 -19 -125 -22 -182 -22 -439 0 -257 3 -314 22 -439 171 -1089 930
-1992 1962 -2332 350 -115 534 -143 930 -143 396 0 580 28 930 143 1043 344
1809 1266 1967 2368 22 150 25 630 5 773 -57 415 -187 787 -395 1134 -443 742
-1206 1254 -2063 1387 -109 16 -195 22 -399 24 -143 2 -278 1 -300 -1z m630
-218 c121 -20 239 -43 280 -56 17 -5 43 -12 59 -14 95 -17 538 -188 556 -215
3 -5 39 -26 80 -47 95 -50 184 -107 234 -150 22 -19 45 -34 51 -34 22 0 333
-282 385 -349 19 -25 55 -65 78 -90 24 -25 60 -71 80 -101 20 -30 44 -64 55
-75 30 -33 166 -260 213 -355 79 -165 150 -353 189 -503 75 -293 99 -498 92
-777 -7 -276 -51 -537 -133 -790 -22 -68 -163 -403 -173 -410 -4 -3 -25 -36
-46 -75 -21 -38 -42 -73 -47 -76 -6 -3 -8 -8 -6 -10 7 -10 -155 -242 -232
-330 -71 -82 -247 -258 -329 -329 -88 -77 -311 -234 -327 -230 -4 1 -10 -2
-13 -8 -3 -5 -37 -26 -76 -47 -38 -21 -72 -42 -75 -46 -8 -12 -350 -154 -425
-177 -284 -86 -495 -121 -775 -129 -279 -7 -484 17 -777 92 -124 32 -187 54
-328 113 -184 76 -327 150 -375 194 -8 7 -16 12 -18 10 -4 -5 -114 64 -137 85
-11 11 -45 35 -75 55 -30 20 -76 56 -101 80 -25 23 -65 59 -90 78 -66 51 -349
363 -349 384 0 6 -20 36 -44 65 -25 30 -74 107 -110 170 -36 64 -70 121 -76
128 -35 41 -195 451 -214 549 -2 11 -9 37 -15 59 -71 269 -99 662 -68 935 16
130 46 301 68 385 6 22 13 48 15 59 19 102 181 512 219 556 7 8 28 44 47 80
41 78 115 194 152 235 14 17 26 34 26 39 0 10 70 99 83 104 4 2 23 25 43 50
49 66 198 216 266 268 31 24 58 47 60 52 5 12 94 82 104 82 5 0 23 12 39 26
41 37 157 111 235 152 36 19 72 40 80 47 44 38 453 199 556 219 11 2 46 11 79
19 94 23 228 48 344 63 141 18 529 12 666 -10z"/>
<path d="M1390 4074 c-143 -19 -337 -68 -424 -105 -61 -27 -85 -32 -168 -34
-127 -4 -201 -26 -250 -75 -37 -36 -38 -40 -38 -106 0 -38 5 -86 11 -107 12
-43 59 -101 98 -122 25 -13 30 -27 85 -287 67 -317 90 -396 158 -533 105 -212
241 -356 418 -445 229 -115 489 -133 796 -55 161 41 271 91 362 166 183 148
346 461 412 789 14 66 32 126 43 140 43 58 120 83 181 60 44 -16 116 -90 116
-118 0 -102 98 -450 165 -582 112 -222 346 -396 640 -476 104 -28 398 -26 506
4 147 40 312 111 383 164 222 166 392 572 449 1070 14 123 19 138 45 138 32 0
83 40 99 78 19 47 14 173 -10 219 -33 62 -130 95 -247 82 -44 -4 -65 -1 -105
17 -79 34 -206 72 -338 100 -151 32 -451 44 -617 25 -251 -29 -506 -92 -725
-181 l-100 -40 -320 0 -320 0 -142 54 c-387 149 -810 207 -1163 160z m652
-288 c91 -14 195 -35 230 -46 247 -83 364 -264 337 -521 -23 -213 -145 -473
-293 -622 -232 -234 -535 -274 -896 -117 -139 60 -173 83 -230 157 -139 185
-228 476 -231 761 -1 103 27 171 104 245 88 87 197 134 372 163 121 20 402 11
607 -20z m2518 24 c241 -30 412 -124 481 -265 31 -65 37 -183 15 -333 -41
-280 -123 -476 -256 -612 -57 -59 -79 -73 -170 -112 -198 -86 -358 -116 -508
-98 -262 33 -465 201 -607 503 -107 229 -129 460 -58 607 54 111 186 209 333
249 67 17 306 55 415 64 92 8 276 6 355 -3z"/>
<path d="M2004 3601 c-128 -74 -204 -236 -204 -437 0 -161 48 -292 141 -386
44 -45 68 -60 114 -73 219 -64 410 179 392 499 -7 118 -31 198 -87 284 -64 99
-137 142 -242 142 -51 0 -73 -6 -114 -29z"/>
<path d="M3845 3609 c-134 -70 -215 -239 -215 -444 0 -172 53 -310 154 -401
226 -205 515 56 493 444 -10 189 -93 338 -224 406 -48 24 -158 22 -208 -5z"/>
<path d="M1630 1945 c-9 -10 -11 -32 -7 -66 5 -43 15 -61 71 -128 191 -229
474 -448 681 -527 l74 -28 7 -52 c5 -42 15 -64 53 -111 97 -121 190 -168 318
-161 74 3 77 5 109 43 l34 39 33 -37 c41 -44 67 -51 162 -45 61 4 84 11 131
39 73 44 171 150 184 200 9 32 15 39 36 39 14 0 81 30 147 66 331 179 564 378
660 563 49 93 62 138 47 156 -31 37 -112 -4 -238 -118 -140 -128 -340 -216
-616 -272 -68 -14 -150 -26 -182 -26 -57 -1 -58 -2 -17 -8 54 -9 76 -30 113
-105 32 -66 57 -196 46 -240 -9 -36 -140 -168 -196 -196 -34 -18 -66 -24 -130
-27 -99 -5 -127 6 -153 57 -15 31 -17 60 -15 247 2 142 7 216 14 223 7 7 45
15 85 19 60 5 35 8 -136 13 -378 11 -592 56 -829 174 -138 70 -229 129 -305
198 -90 83 -151 107 -181 71z m1199 -454 c57 -5 109 -14 115 -21 7 -7 12 -82
14 -223 4 -292 -7 -311 -168 -304 -109 4 -151 26 -247 123 -52 53 -74 82 -78
108 -17 86 44 270 103 317 24 18 35 20 92 15 36 -4 112 -11 169 -15z"/>
<path d="M3203 1503 c9 -2 25 -2 35 0 9 3 1 5 -18 5 -19 0 -27 -2 -17 -5z"/>
</g>
</svg>
